<?xml version="1.0" encoding="utf-8"?>
<!-- Generator: Adobe Illustrator 25.0.0, SVG Export Plug-In . SVG Version: 6.00 Build 0)  -->
<svg version="1.1" id="Layer_1" xmlns="http://www.w3.org/2000/svg" xmlns:xlink="http://www.w3.org/1999/xlink" x="0px" y="0px"
	 viewBox="0 0 43 43" style="enable-background:new 0 0 43 43;" xml:space="preserve">
<style type="text/css">
	.st0{fill:#0B506B;}
</style>
<g>
	<path class="st0" d="M21.8,42.4c-4.2,0-8.3-1.2-11.8-3.6c-3.5-2.3-6.2-5.6-7.8-9.5c-1.6-3.9-2-8.1-1.2-12.2C1.8,13,3.8,9.3,6.8,6.3
		c3-3,6.7-5,10.8-5.8c4.1-0.8,8.3-0.4,12.2,1.2C33.8,3.3,37,6,39.4,9.5c2.3,3.5,3.6,7.6,3.6,11.8c0,5.7-2.2,11-6.2,15
		C32.7,40.2,27.4,42.4,21.8,42.4z M21.8,1.1c-1.3,0-2.6,0.1-3.9,0.4C13.9,2.3,10.4,4.2,7.5,7C4.7,9.8,2.8,13.4,2,17.3
		c-0.8,3.9-0.4,8,1.1,11.6c1.5,3.7,4.1,6.8,7.4,9c3.3,2.2,7.2,3.4,11.2,3.4c5.4,0,10.4-2.1,14.3-5.9c3.8-3.8,5.9-8.9,5.9-14.3
		c0-4-1.2-7.9-3.4-11.2c-2.2-3.3-5.4-5.9-9-7.4C27,1.6,24.4,1.1,21.8,1.1z"/>
</g>
<g>
	<path class="st0" d="M21,8.3h1.6l0.5,0.1c1.8,0.3,3.3,1.2,4.5,2.5c1.2,1.3,1.8,3,1.9,4.8c0,1.1,0,2.2,0,3.3v0.3h0.9
		c0.3,0,0.6,0,0.9,0.1c0.3,0.1,0.6,0.3,0.8,0.5c0.2,0.2,0.4,0.5,0.5,0.8c0.1,0.3,0.2,0.6,0.1,0.9v7.2c0,1.2,0,2.5,0,3.7
		c0,0.3-0.1,0.6-0.2,0.8c-0.1,0.3-0.3,0.5-0.5,0.7c-0.2,0.2-0.4,0.4-0.7,0.5c-0.3,0.1-0.6,0.2-0.8,0.2H12.9c-0.5,0-1-0.2-1.4-0.5
		c-0.4-0.3-0.7-0.8-0.7-1.3c0-0.1,0-0.3,0-0.4v-11c0-0.5,0.1-1,0.5-1.4c0.3-0.4,0.7-0.7,1.2-0.8c0.4-0.1,0.9-0.1,1.3-0.1h0.3
		c0-1.2,0-2.3,0-3.4c0-1.7,0.6-3.3,1.6-4.6s2.4-2.3,4-2.7C20.1,8.5,20.5,8.4,21,8.3z M26.2,19.3c0-1.2,0-2.4,0-3.6
		c0-0.2,0-0.4-0.1-0.6c-0.2-1.1-0.8-2-1.7-2.6c-0.9-0.6-2-0.9-3.1-0.8c-1.1,0.1-2.1,0.6-2.8,1.4c-0.7,0.8-1.1,1.9-1.1,3
		c0,1,0,2,0,3.1c0,0.1,0,0.2,0,0.2H26.2z"/>
</g>
</svg>
