<?xml version="1.0" encoding="utf-8"?>
<!-- Generator: Adobe Illustrator 25.0.0, SVG Export Plug-In . SVG Version: 6.00 Build 0)  -->
<svg version="1.1" id="Layer_1" xmlns="http://www.w3.org/2000/svg" xmlns:xlink="http://www.w3.org/1999/xlink" x="0px" y="0px"
	 viewBox="0 0 55 55" style="enable-background:new 0 0 55 55;" xml:space="preserve">
<style type="text/css">
	.st0{fill:#0B506B;}
</style>
<g>
	<path class="st0" d="M28.8,13.3l0.9,0.2c0.8,0.1,1.6,0.5,2.2,1.1c0.6,0.6,1.1,1.3,1.2,2.2c0.7,2.3,0.6,4.8-0.3,7.1
		c-1,2.1-2.6,3.6-5.1,3.6c-1,0-2-0.3-2.9-0.9c-0.9-0.6-1.5-1.4-1.9-2.4c-0.6-1.3-0.9-2.6-1-4c0-1.4,0.2-2.8,0.8-4.1
		c0.3-0.7,0.8-1.4,1.4-1.8c0.6-0.5,1.4-0.7,2.2-0.8l0.5-0.1H28.8z"/>
</g>
<g>
	<path class="st0" d="M28.2,42.2c-3.3-0.1-6.1-0.3-8.7-1.3c-0.2-0.1-0.3-0.1-0.5-0.2c-1.5-0.7-2.6-1.6-2.2-3.5
		c0.3-1.5,0.3-3,0.6-4.5c0.2-0.8,0.5-1.5,1-2.1c0.5-0.6,1.2-1.1,2-1.3c1.3-0.4,2.5-0.8,3.9-1.1c0.1,0,0.3,0,0.4,0
		c0.1,0,0.2,0.1,0.3,0.2c0.8,0.6,1.8,0.9,2.9,0.9c1,0,2-0.3,2.9-0.9c0.2-0.1,0.4-0.2,0.6-0.2c1.4,0.3,2.8,0.8,4.2,1.3
		c2,0.9,2.8,2.7,3,4.8c0.2,1.4,0.2,2.8,0.3,4.2c0,0.2,0,0.5-0.1,0.7c-0.1,0.2-0.3,0.4-0.4,0.5c-1.2,1-2.7,1.7-4.2,2
		c-0.7,0.2-1.3,0.3-2,0.4C30.6,42.1,29.2,42.1,28.2,42.2z"/>
</g>
<g>
	<path class="st0" d="M27.8,48.9c-2.7,0-5.5-0.5-8.1-1.6c-5.2-2.2-9.3-6.2-11.5-11.5s-2.2-11,0-16.2c2.2-5.2,6.2-9.3,11.5-11.5
		c5.2-2.2,11-2.2,16.2,0c5.2,2.2,9.3,6.2,11.5,11.5c2.2,5.2,2.2,11,0,16.2c-2.2,5.2-6.2,9.3-11.5,11.5l0,0
		C33.3,48.4,30.5,48.9,27.8,48.9z M27.8,7.6c-2.6,0-5.2,0.5-7.7,1.5c-5,2.1-8.9,5.9-10.9,10.9c-2.1,5-2.1,10.5,0,15.4
		s5.9,8.9,10.9,10.9c5,2.1,10.5,2.1,15.4,0l0,0c5-2.1,8.9-5.9,10.9-10.9s2.1-10.5,0-15.4s-5.9-8.9-10.9-10.9
		C33,8.1,30.4,7.6,27.8,7.6z"/>
</g>
</svg>
