<svg width="334" height="349" viewBox="0 0 334 349" fill="none" xmlns="http://www.w3.org/2000/svg">
<path d="M159.2 38C138.762 40.0916 119.16 47.2097 102.141 58.7192C85.1233 70.2288 71.2187 85.7719 61.6683 103.962C52.1178 122.152 47.2183 142.423 47.4071 162.967C47.5959 183.511 52.867 203.689 62.7501 221.7C65.4303 219.38 67.1047 216.11 67.4201 212.58C67.6185 209.769 66.9181 206.967 65.4201 204.58C60.5156 190.855 58.1438 176.353 58.4201 161.78C58.6201 152.43 60.6701 107.19 97.4201 75.41C112.331 62.7261 130.268 54.114 149.49 50.41C151.099 50.1817 152.642 49.6188 154.02 48.7576C155.398 47.8964 156.58 46.756 157.49 45.41C158.901 43.2127 159.506 40.5935 159.2 38Z" fill="#247EAA"/>
<path d="M179.91 38C200.348 40.0916 219.95 47.2097 236.969 58.7192C253.987 70.2288 267.891 85.7719 277.442 103.962C286.992 122.152 291.892 142.423 291.703 162.967C291.514 183.511 286.243 203.689 276.36 221.7C273.683 219.378 272.009 216.109 271.69 212.58C271.496 209.769 272.196 206.969 273.69 204.58C278.599 190.856 280.971 176.353 280.69 161.78C280.49 152.43 278.44 107.19 241.64 75.41C226.729 62.7261 208.792 54.114 189.57 50.41C187.962 50.1805 186.419 49.6171 185.041 48.756C183.663 47.8949 182.481 46.7552 181.57 45.41C180.176 43.2064 179.589 40.5877 179.91 38Z" fill="#247EAA"/>
<path d="M161.07 59.1099C144.314 60.8168 128.242 66.6464 114.288 76.0782C100.334 85.51 88.9324 98.2503 81.1018 113.162C73.2712 128.073 69.2549 144.692 69.4116 161.534C69.5684 178.376 73.8932 194.917 81.9999 209.68C84.1968 207.781 85.57 205.102 85.8299 202.21C85.9877 199.902 85.4139 197.603 84.1899 195.64C80.1644 184.392 78.2194 172.505 78.4499 160.56C78.6099 152.89 80.2899 115.81 110.45 89.7699C122.667 79.3674 137.366 72.2988 153.12 69.2499C154.441 69.0638 155.708 68.6028 156.84 67.8965C157.971 67.1903 158.942 66.2547 159.69 65.1499C160.831 63.3554 161.319 61.222 161.07 59.1099Z" fill="#247EAA"/>
<path d="M178 59.1099C194.755 60.8183 210.826 66.649 224.779 76.0814C238.732 85.5137 250.132 98.2543 257.961 113.166C265.791 128.077 269.806 144.695 269.649 161.536C269.491 178.377 265.166 194.917 257.06 209.68C254.866 207.778 253.494 205.101 253.23 202.21C253.072 199.902 253.646 197.603 254.87 195.64C258.9 184.392 260.848 172.505 260.62 160.56C260.45 152.89 258.77 115.81 228.62 89.7699C216.415 79.3777 201.735 72.31 186 69.2499C184.679 69.0638 183.412 68.6028 182.28 67.8965C181.149 67.1903 180.178 66.2547 179.43 65.1499C178.276 63.3594 177.772 61.2275 178 59.1099Z" fill="#247EAA"/>
<path d="M177.1 0H162.59V261.1H177.1V0Z" fill="#247EAA"/>
<path d="M136.28 88.1396H121.77V261.11H136.28V88.1396Z" fill="#247EAA"/>
<path d="M95.4599 174.24H80.95V261.11H95.4599V174.24Z" fill="#247EAA"/>
<path d="M217.91 88.1396H203.4V261.11H217.91V88.1396Z" fill="#247EAA"/>
<path d="M258.73 174.24H244.22V261.11H258.73V174.24Z" fill="#247EAA"/>
<path d="M169.56 175.22C178.579 175.22 185.89 167.909 185.89 158.89C185.89 149.871 178.579 142.56 169.56 142.56C160.541 142.56 153.23 149.871 153.23 158.89C153.23 167.909 160.541 175.22 169.56 175.22Z" fill="#247EAA"/>
<path d="M211.28 222.38C220.299 222.38 227.61 215.069 227.61 206.05C227.61 197.031 220.299 189.72 211.28 189.72C202.261 189.72 194.95 197.031 194.95 206.05C194.95 215.069 202.261 222.38 211.28 222.38Z" fill="#247EAA"/>
<path d="M129.65 222.38C138.669 222.38 145.98 215.069 145.98 206.05C145.98 197.031 138.669 189.72 129.65 189.72C120.631 189.72 113.32 197.031 113.32 206.05C113.32 215.069 120.631 222.38 129.65 222.38Z" fill="#247EAA"/>
<path d="M87.9201 249.59C96.9389 249.59 104.25 242.278 104.25 233.26C104.25 224.241 96.9389 216.93 87.9201 216.93C78.9013 216.93 71.5901 224.241 71.5901 233.26C71.5901 242.278 78.9013 249.59 87.9201 249.59Z" fill="#247EAA"/>
<path d="M251.19 249.59C260.209 249.59 267.52 242.278 267.52 233.26C267.52 224.241 260.209 216.93 251.19 216.93C242.171 216.93 234.86 224.241 234.86 233.26C234.86 242.278 242.171 249.59 251.19 249.59Z" fill="#247EAA"/>
<path d="M88.9099 234.78L86.9299 231.74L128.43 204.68L169.52 156.11L212.49 204.68L252.21 231.77L250.17 234.76L210.07 207.42L209.92 207.25L169.59 161.66L130.86 207.43L88.9099 234.78Z" fill="#247EAA"/>
<path d="M4.88359 272.911L4.42319 269.182H24.8189C27.2437 269.182 29.0699 269.597 30.2977 270.425C31.5254 271.254 32.3081 272.252 32.6457 273.418C33.014 274.584 33.1982 275.919 33.1982 277.423V280.14C33.1982 282.104 32.5843 283.884 31.3566 285.48C30.1596 287.076 27.9803 287.874 24.8189 287.874H20.1228C16.7773 287.874 13.7233 287.752 10.9609 287.506V296.3H4.88359V272.911ZM23.4838 283.455C24.7729 283.455 25.6937 283.148 26.2462 282.534C26.8293 281.889 27.1209 281.045 27.1209 280.002V277.101C27.1209 274.768 25.9239 273.602 23.5298 273.602H10.9609V283.455H23.4838ZM69.0472 296.76C67.6353 296.76 66.3462 296.545 65.1798 296.116C64.0442 295.655 62.7857 294.734 61.4045 293.353L58.0896 290.038C56.7084 288.626 55.2045 287.614 53.5777 287C51.951 286.355 49.9559 286.033 47.5925 286.033H46.1653V296.3H40.088V272.911L39.6276 269.182H60.0233C62.4481 269.182 64.2744 269.597 65.5021 270.425C66.7298 271.254 67.5125 272.252 67.8501 273.418C68.2184 274.584 68.4026 275.919 68.4026 277.423V278.298C68.4026 280.14 67.8655 281.843 66.7912 283.409C65.7169 284.943 63.7986 285.803 61.0362 285.987C61.2818 286.11 61.6501 286.324 62.1412 286.631C62.8164 287.092 63.6144 287.721 64.5352 288.519C64.965 288.887 65.4254 289.271 65.9164 289.67C66.4382 290.069 66.9907 290.437 67.5739 290.775C69.5383 291.972 71.5487 292.571 73.6051 292.571L72.6843 296.3C71.7328 296.607 70.5204 296.76 69.0472 296.76ZM46.1653 281.613C48.4059 281.767 50.7079 281.843 53.0713 281.843C55.1891 281.843 57.0614 281.767 58.6882 281.613C61.1129 281.367 62.3253 280.216 62.3253 278.16V277.101C62.3253 274.768 61.1283 273.602 58.7342 273.602H46.1653V281.613ZM85.7194 296.3C82.5887 296.3 80.3941 295.64 79.1357 294.32C77.9079 293 77.2941 290.913 77.2941 288.059V277.423C77.2941 274.63 77.9079 272.574 79.1357 271.254C80.3634 269.904 82.558 269.228 85.7194 269.228H99.1631C102.263 269.228 104.427 269.904 105.655 271.254C106.913 272.574 107.542 274.63 107.542 277.423V288.059C107.542 290.882 106.913 292.97 105.655 294.32C104.427 295.64 102.263 296.3 99.1631 296.3H85.7194ZM97.874 291.88C99.0096 291.88 99.8844 291.588 100.498 291.005C101.143 290.422 101.465 289.624 101.465 288.611V276.871C101.465 275.981 101.127 275.229 100.452 274.615C99.8076 273.97 98.9482 273.648 97.874 273.648H87.0546C85.9496 273.648 85.0595 273.94 84.3842 274.523C83.709 275.106 83.3714 275.889 83.3714 276.871V288.611C83.3714 289.624 83.6936 290.422 84.3382 291.005C85.0135 291.588 85.9189 291.88 87.0546 291.88H97.874ZM119.599 296.3C117.604 296.3 116.085 296.223 115.041 296.07C114.028 295.885 113.522 295.655 113.522 295.379L115.363 291.374C118.064 291.711 123.681 291.88 132.214 291.88H133.089C134.409 291.88 135.345 291.65 135.897 291.189C136.45 290.698 136.726 289.885 136.726 288.749V287.828C136.726 286.723 136.48 285.956 135.989 285.526C135.529 285.066 134.562 284.836 133.089 284.836H122.408C119.277 284.836 117.006 284.268 115.594 283.132C114.212 281.966 113.522 280.078 113.522 277.469V276.733C113.522 274.461 114.166 272.651 115.455 271.3C116.745 269.919 118.908 269.228 121.947 269.228H134.47C136.496 269.228 138.169 269.336 139.488 269.551C140.808 269.735 141.468 269.965 141.468 270.241L140.547 274.109C137.601 273.802 131.999 273.648 123.743 273.648L123.236 273.602C121.916 273.602 120.98 273.863 120.428 274.385C119.906 274.907 119.63 275.643 119.599 276.595V277.377C119.599 278.421 119.875 279.188 120.428 279.679C121.011 280.17 121.962 280.416 123.282 280.416H133.503C135.621 280.416 137.34 280.631 138.66 281.061C140.01 281.46 141.038 282.196 141.744 283.27C142.45 284.345 142.803 285.879 142.803 287.874V288.611C142.803 293.737 140.164 296.3 134.884 296.3H119.599ZM149.703 272.911L149.242 269.182H169.638C172.063 269.182 173.889 269.597 175.117 270.425C176.345 271.254 177.127 272.252 177.465 273.418C177.833 274.584 178.017 275.919 178.017 277.423V280.14C178.017 282.104 177.404 283.884 176.176 285.48C174.979 287.076 172.8 287.874 169.638 287.874H164.942C161.596 287.874 158.542 287.752 155.78 287.506V296.3H149.703V272.911ZM168.303 283.455C169.592 283.455 170.513 283.148 171.065 282.534C171.649 281.889 171.94 281.045 171.94 280.002V277.101C171.94 274.768 170.743 273.602 168.349 273.602H155.78V283.455H168.303ZM184.447 269.228H213.084V273.648H190.524V280.002H207.743V284.56H190.524V291.88H213.268L215.109 295.793C215.017 295.947 214.526 296.07 213.636 296.162C212.746 296.254 211.396 296.3 209.585 296.3H184.447V269.228ZM249.116 296.76C247.704 296.76 246.415 296.545 245.248 296.116C244.113 295.655 242.854 294.734 241.473 293.353L238.158 290.038C236.777 288.626 235.273 287.614 233.646 287C232.02 286.355 230.024 286.033 227.661 286.033H226.234V296.3H220.157V272.911L219.696 269.182H240.092C242.517 269.182 244.343 269.597 245.571 270.425C246.798 271.254 247.581 272.252 247.919 273.418C248.287 274.584 248.471 275.919 248.471 277.423V278.298C248.471 280.14 247.934 281.843 246.86 283.409C245.786 284.943 243.867 285.803 241.105 285.987C241.35 286.11 241.719 286.324 242.21 286.631C242.885 287.092 243.683 287.721 244.604 288.519C245.034 288.887 245.494 289.271 245.985 289.67C246.507 290.069 247.059 290.437 247.642 290.775C249.607 291.972 251.617 292.571 253.674 292.571L252.753 296.3C251.801 296.607 250.589 296.76 249.116 296.76ZM226.234 281.613C228.474 281.767 230.776 281.843 233.14 281.843C235.258 281.843 237.13 281.767 238.757 281.613C241.182 281.367 242.394 280.216 242.394 278.16V277.101C242.394 274.768 241.197 273.602 238.803 273.602H226.234V281.613ZM257.823 269.228H263.9V296.3H257.823V269.228ZM280.474 273.602H268.504V269.182H298.614V273.602H286.598V296.3H280.52L280.474 273.602ZM313.408 285.066L300.011 269.228H307.377L314.191 277.838L316.309 280.692H316.769L318.887 277.838L325.701 269.228H333.068L331.272 271.991L319.486 285.25V296.3H313.408V285.066Z" fill="#24597A"/>
<path d="M96.9136 314.402L96.4532 310.719H125.182V315.138H102.991V321.86H120.21V326.418H102.991V337.79H96.9136V314.402ZM137.274 338.25C134.603 338.25 132.685 337.544 131.519 336.133C130.352 334.69 129.769 332.649 129.769 330.009V310.719H135.847V330.193C135.847 331.544 136.169 332.495 136.813 333.048C137.458 333.57 138.363 333.831 139.53 333.831H149.29C151.746 333.831 152.973 332.618 152.973 330.193V310.719H159.051V330.009C159.051 332.68 158.483 334.721 157.347 336.133C156.212 337.544 154.293 338.25 151.592 338.25H137.274ZM166.873 314.402L166.412 310.719H173.042L188.696 327.109L190.491 329.595H190.998V310.719H197.075V337.79H191.228L175.206 321.124L173.411 318.96H172.95V337.79H166.873V314.402ZM204.91 314.402L204.449 310.719H225.812C228.237 310.719 230.124 311.025 231.475 311.639C232.825 312.222 233.762 313.113 234.283 314.31C234.836 315.476 235.112 317.011 235.112 318.914V329.549C235.112 331.483 234.851 333.048 234.329 334.245C233.808 335.411 232.871 336.301 231.521 336.915C230.17 337.498 228.267 337.79 225.812 337.79H204.91V314.402ZM225.444 333.37C227.807 333.37 229.004 332.281 229.035 330.101V318.361C229.035 316.213 227.838 315.138 225.444 315.138H210.987V333.37H225.444Z" fill="#24597A"/>
</svg>
