<svg width="40" height="41" viewBox="0 0 40 41" fill="none" xmlns="http://www.w3.org/2000/svg">
<path d="M31.49 12.41C31.4896 10.4315 30.9784 8.48667 30.0058 6.76376C29.0332 5.04085 27.6321 3.59831 25.9384 2.57577C24.2446 1.55323 22.3156 0.985338 20.3379 0.927151C18.3603 0.868965 16.4012 1.32243 14.6502 2.24362C12.8993 3.16481 11.4159 4.52252 10.3436 6.18527C9.27141 7.84802 8.6467 9.75943 8.53001 11.7345C8.41331 13.7095 8.8086 15.6812 9.67756 17.4586C10.5465 19.2361 11.8597 20.7591 13.49 21.88C10.6473 22.8688 8.06585 24.4894 5.94001 26.62C2.60922 29.9296 0.570056 34.32 0.190011 39C0.170594 39.2155 0.196214 39.4327 0.265237 39.6377C0.334259 39.8428 0.445182 40.0312 0.590951 40.1911C0.736719 40.3509 0.914129 40.4788 1.11195 40.5664C1.30976 40.654 1.52365 40.6995 1.74 40.7V40.7C2.12437 40.7042 2.49622 40.5634 2.78156 40.3059C3.06691 40.0483 3.24486 39.6928 3.28001 39.31C3.62843 35.1133 5.54025 31.2005 8.63682 28.3465C11.7334 25.4926 15.7889 23.9057 20 23.9001C23.0465 23.8974 25.9675 22.686 28.1217 20.5318C30.276 18.3775 31.4873 15.4565 31.49 12.41V12.41ZM20 20.8C18.3402 20.802 16.7171 20.3116 15.336 19.3909C13.955 18.4702 12.8781 17.1605 12.2415 15.6277C11.605 14.0948 11.4374 12.4075 11.76 10.7794C12.0826 9.15123 12.8809 7.65529 14.0538 6.48092C15.2268 5.30656 16.7218 4.50651 18.3495 4.18197C19.9773 3.85743 21.6647 4.02302 23.1984 4.65774C24.7321 5.29247 26.043 6.36782 26.9653 7.74777C27.8877 9.12771 28.38 10.7502 28.38 12.41C28.38 14.6334 27.4974 16.766 25.9262 18.3391C24.3549 19.9123 22.2234 20.7974 20 20.8ZM26.67 31.36H38.32C38.5239 31.3587 38.7261 31.3979 38.9147 31.4753C39.1034 31.5527 39.2748 31.6669 39.419 31.8111C39.5632 31.9553 39.6773 32.1266 39.7547 32.3153C39.8322 32.5039 39.8713 32.7061 39.87 32.91V32.91C39.8713 33.1139 39.8322 33.3161 39.7547 33.5047C39.6773 33.6934 39.5632 33.8648 39.419 34.009C39.2748 34.1532 39.1034 34.2673 38.9147 34.3448C38.7261 34.4222 38.5239 34.4614 38.32 34.46H26.67C26.4661 34.4614 26.2639 34.4222 26.0753 34.3448C25.8866 34.2673 25.7152 34.1532 25.571 34.009C25.4268 33.8648 25.3127 33.6934 25.2353 33.5047C25.1579 33.3161 25.1187 33.1139 25.12 32.91C25.1187 32.7061 25.1579 32.5039 25.2353 32.3153C25.3127 32.1266 25.4268 31.9553 25.571 31.8111C25.7152 31.6669 25.8866 31.5527 26.0753 31.4753C26.2639 31.3979 26.4661 31.3587 26.67 31.36V31.36ZM39.87 26.7C39.8713 26.904 39.8322 27.1061 39.7547 27.2948C39.6773 27.4834 39.5632 27.6548 39.419 27.799C39.2748 27.9432 39.1034 28.0573 38.9147 28.1347C38.7261 28.2122 38.5239 28.2514 38.32 28.25H26.67C26.4661 28.2514 26.2639 28.2122 26.0753 28.1347C25.8866 28.0573 25.7152 27.9432 25.571 27.799C25.4268 27.6548 25.3127 27.4834 25.2353 27.2948C25.1579 27.1061 25.1187 26.904 25.12 26.7C25.1187 26.4961 25.1579 26.294 25.2353 26.1053C25.3127 25.9167 25.4268 25.7452 25.571 25.601C25.7152 25.4568 25.8866 25.3427 26.0753 25.2653C26.2639 25.1879 26.4661 25.1487 26.67 25.1501H38.32C38.5239 25.1487 38.7261 25.1879 38.9147 25.2653C39.1034 25.3427 39.2748 25.4568 39.419 25.601C39.5632 25.7452 39.6773 25.9167 39.7547 26.1053C39.8322 26.294 39.8713 26.4961 39.87 26.7V26.7ZM26.67 37.57H38.32C38.5239 37.5687 38.7261 37.6079 38.9147 37.6853C39.1034 37.7628 39.2748 37.8768 39.419 38.021C39.5632 38.1652 39.6773 38.3366 39.7547 38.5253C39.8322 38.7139 39.8713 38.9161 39.87 39.12V39.12C39.8713 39.3239 39.8322 39.5261 39.7547 39.7147C39.6773 39.9034 39.5632 40.0748 39.419 40.219C39.2748 40.3632 39.1034 40.4774 38.9147 40.5548C38.7261 40.6322 38.5239 40.6713 38.32 40.67H26.67C26.4661 40.6713 26.2639 40.6322 26.0753 40.5548C25.8866 40.4774 25.7152 40.3632 25.571 40.219C25.4268 40.0748 25.3127 39.9034 25.2353 39.7147C25.1579 39.5261 25.1187 39.3239 25.12 39.12V39.12C25.1187 38.9161 25.1579 38.7139 25.2353 38.5253C25.3127 38.3366 25.4268 38.1652 25.571 38.021C25.7152 37.8768 25.8866 37.7628 26.0753 37.6853C26.2639 37.6079 26.4661 37.5687 26.67 37.57V37.57Z" fill="#24597A"/>
</svg>
