<svg width="45" height="44" viewBox="0 0 45 44" fill="none" xmlns="http://www.w3.org/2000/svg">
<path fill-rule="evenodd" clip-rule="evenodd" d="M44.44 2.09995C44.3883 1.90239 44.2972 1.7174 44.172 1.55607C44.0468 1.39474 43.8903 1.26044 43.7117 1.16135C43.5332 1.06227 43.3364 1.00045 43.1333 0.97959C42.9302 0.958726 42.7249 0.979232 42.53 1.03995L34.3599 4.16996C34.1224 4.25387 33.908 4.39271 33.7342 4.57517C33.5604 4.75763 33.4322 4.97855 33.3599 5.21995L27.47 24.46H7.80995C7.11995 22.37 3.64995 9.9 3.64995 9.9C3.59468 9.70465 3.50132 9.52215 3.37526 9.36301C3.2492 9.20388 3.09293 9.07121 2.91542 8.97269C2.73791 8.87418 2.54266 8.81176 2.34093 8.78898C2.1392 8.7662 1.93496 8.78356 1.73995 8.84C1.32723 8.93563 0.968394 9.18909 0.740343 9.54612C0.512293 9.90315 0.433174 10.3353 0.519946 10.75L5.03997 26.35C5.13194 26.6972 5.33537 27.0046 5.61901 27.225C5.90264 27.4454 6.25076 27.5666 6.60994 27.57H26.4C26.04 28.96 25.53 30.8699 25.17 31.9099H6.42995C6.22556 31.9086 6.02294 31.9478 5.83373 32.0251C5.64452 32.1024 5.47246 32.2163 5.32747 32.3604C5.18248 32.5045 5.0674 32.6758 4.98888 32.8645C4.91036 33.0532 4.86995 33.2556 4.86995 33.46C4.87177 33.6572 4.91463 33.8518 4.99581 34.0315C5.07699 34.2112 5.19472 34.372 5.34148 34.5037C5.48823 34.6354 5.66079 34.7352 5.84819 34.7965C6.0356 34.8578 6.23372 34.8794 6.42995 34.86H26.4299C26.7566 34.8633 27.0769 34.7701 27.3508 34.5923C27.6247 34.4144 27.8401 34.1597 27.97 33.86L30.06 26.39C30.41 25.53 35.79 8.18997 36.13 6.98997C37.35 6.47997 43.6 3.98997 43.6 3.98997C43.9111 3.92355 44.1881 3.7478 44.3808 3.4946C44.5734 3.24141 44.6689 2.92755 44.65 2.60996C44.6636 2.51521 44.6544 2.41856 44.6231 2.3281C44.5918 2.23764 44.5393 2.15603 44.47 2.09L44.44 2.09995ZM7.27996 36.1C6.36221 36.1079 5.48476 36.478 4.83861 37.1298C4.19246 37.7816 3.82991 38.6622 3.82994 39.58C3.82994 40.5003 4.19555 41.3829 4.8463 42.0336C5.49705 42.6844 6.37964 43.05 7.29994 43.05C8.22025 43.05 9.10287 42.6844 9.75362 42.0336C10.4044 41.3829 10.7699 40.5003 10.7699 39.58C10.7621 38.6577 10.3915 37.7756 9.73845 37.1244C9.08536 36.4732 8.20222 36.1052 7.27996 36.1ZM26.04 36.1C25.1196 36.1052 24.2385 36.4739 23.5886 37.1256C22.9387 37.7774 22.5726 38.6596 22.57 39.58C22.57 40.5003 22.9355 41.3829 23.5863 42.0336C24.237 42.6844 25.1197 43.05 26.04 43.05C26.9603 43.05 27.8429 42.6844 28.4936 42.0336C29.1444 41.3829 29.51 40.5003 29.51 39.58C29.5047 38.6604 29.1378 37.7797 28.4885 37.1285C27.8391 36.4773 26.9596 36.1078 26.04 36.1Z" fill="#24597A"/>
</svg>
