<svg width="45" height="45" viewBox="0 0 45 45" fill="none" xmlns="http://www.w3.org/2000/svg">
<path d="M21.9999 1.00008C16.2817 1.00801 10.7998 3.28311 6.75641 7.32656C2.71297 11.37 0.437868 16.8518 0.429932 22.5701C0.536256 26.2021 1.45909 29.7635 3.12994 32.9901C3.31162 33.3441 3.62649 33.6115 4.00531 33.7334C4.38413 33.8553 4.79587 33.8218 5.14993 33.6401C5.504 33.4584 5.77138 33.1436 5.89328 32.7647C6.01518 32.3859 5.9816 31.9741 5.79993 31.6201C4.34429 28.8181 3.53449 25.7258 3.42993 22.5701C3.42598 18.894 4.51258 15.2994 6.55222 12.2411C8.59185 9.18279 11.4928 6.79823 14.8881 5.38918C18.2834 3.98013 22.0204 3.60993 25.6261 4.3254C29.2319 5.04086 32.5444 6.80986 35.1444 9.40853C37.7445 12.0072 39.5153 15.3187 40.2327 18.9241C40.9501 22.5295 40.5819 26.2666 39.1747 29.6626C37.7674 33.0587 35.3845 35.961 32.3272 38.0023C29.27 40.0436 25.676 41.1321 21.9999 41.1301C19.0947 41.1043 16.233 40.4205 13.6299 39.1301C13.2777 38.9588 12.8728 38.9301 12.4999 39.0501L3.05994 42.0501C2.71794 42.1584 2.42607 42.3856 2.23727 42.6907C2.04848 42.9957 1.97528 43.3583 2.03091 43.7127C2.08655 44.0671 2.26737 44.3899 2.54056 44.6224C2.81374 44.8549 3.16119 44.9818 3.51993 44.9801C3.67273 44.9813 3.82472 44.9576 3.96994 44.91L12.8399 42.0701C15.7152 43.3839 18.8387 44.0659 21.9999 44.0701C24.945 44.2606 27.8979 43.8449 30.676 42.8489C33.4541 41.8529 35.9984 40.2976 38.1515 38.2792C40.3047 36.2608 42.0209 33.8222 43.1942 31.1142C44.3675 28.4062 44.9728 25.4863 44.9728 22.5351C44.9728 19.5838 44.3675 16.6639 43.1942 13.9559C42.0209 11.2479 40.3047 8.80935 38.1515 6.79097C35.9984 4.77259 33.4541 3.21731 30.676 2.22127C27.8979 1.22523 24.945 0.809587 21.9999 1.00008V1.00008Z" fill="#24597A"/>
<path d="M17.74 18.87C17.5837 18.9902 17.4527 19.1399 17.3543 19.3107C17.2559 19.4816 17.1921 19.6701 17.1666 19.8656C17.141 20.061 17.1542 20.2596 17.2054 20.45C17.2567 20.6403 17.3449 20.8187 17.465 20.975C17.5852 21.1313 17.7349 21.2623 17.9058 21.3607C18.0766 21.4591 18.2651 21.5229 18.4606 21.5485C18.656 21.574 18.8546 21.5608 19.045 21.5096C19.2353 21.4584 19.4138 21.3702 19.57 21.25C20.0692 20.9336 20.4726 20.4871 20.7369 19.9585C21.0012 19.4298 21.1164 18.8392 21.07 18.25C20.7233 17.0008 20.0781 15.8545 19.19 14.91C18.4483 13.8352 17.4382 12.9733 16.26 12.41C15.5338 12.1818 14.75 12.2209 14.05 12.52C13.3564 12.7625 12.7214 13.1477 12.1857 13.6506C11.6501 14.1535 11.2257 14.7631 10.94 15.44C10.6949 16.1037 10.5914 16.8114 10.6361 17.5175C10.6809 18.2237 10.873 18.9126 11.2 19.54C12.6907 22.7484 14.8012 25.6304 17.41 28.02V28.02C20.0792 30.3524 23.1816 32.1363 26.54 33.27C27.1563 33.4907 27.8054 33.6056 28.46 33.61C29.2222 33.6139 29.9739 33.432 30.65 33.08C31.2899 32.7178 31.8478 32.2269 32.2884 31.6383C32.729 31.0496 33.0428 30.376 33.21 29.66C33.421 28.9294 33.3715 28.1482 33.07 27.45C32.3821 26.3406 31.4126 25.4331 30.26 24.82C29.2253 24.0427 28.0174 23.5279 26.74 23.32C26.1575 23.347 25.593 23.5301 25.1056 23.8504C24.6182 24.1706 24.226 24.6161 23.97 25.14C23.8514 25.3082 23.7687 25.499 23.7269 25.7005C23.6852 25.9021 23.6854 26.11 23.7275 26.3115C23.7696 26.5129 23.8527 26.7036 23.9717 26.8715C24.0906 27.0395 24.2428 27.1811 24.4189 27.2877C24.5949 27.3943 24.791 27.4636 24.995 27.4911C25.199 27.5187 25.4064 27.504 25.6044 27.4479C25.8024 27.3918 25.9868 27.2956 26.1461 27.1652C26.3053 27.0349 26.436 26.8731 26.53 26.69C26.5974 26.5652 26.6778 26.4479 26.77 26.34C28.0996 26.893 29.3139 27.69 30.35 28.69C30.3622 28.746 30.3622 28.804 30.35 28.86C30.2842 29.1794 30.1557 29.4826 29.972 29.752C29.7884 30.0215 29.5532 30.2519 29.28 30.43C29.0059 30.5442 28.712 30.6029 28.415 30.6029C28.1181 30.6029 27.8241 30.5442 27.55 30.43C24.5684 29.421 21.8133 27.8379 19.44 25.77V25.77C17.1191 23.6406 15.2401 21.0751 13.91 18.22C13.7646 17.9588 13.6736 17.6709 13.6427 17.3735C13.6117 17.0761 13.6415 16.7756 13.73 16.49C13.8753 16.2007 14.0765 15.943 14.3219 15.7319C14.5674 15.5208 14.8522 15.3604 15.16 15.26C15.2192 15.246 15.2808 15.246 15.34 15.26C16.4435 16.1845 17.3688 17.3028 18.07 18.56L17.74 18.83V18.87Z" fill="#24597A"/>
</svg>
