<svg width="219" height="64" viewBox="0 0 219 64" fill="none" xmlns="http://www.w3.org/2000/svg">
<path d="M27.9798 9.24998C23.002 9.75667 18.227 11.4882 14.0814 14.29C9.93581 17.0918 6.54863 20.8767 4.22227 25.3066C1.8959 29.7365 0.70268 34.6736 0.749366 39.6769C0.796052 44.6803 2.08122 49.5943 4.48984 53.98C5.14076 53.4138 5.54883 52.6189 5.62974 51.76C5.6875 51.0578 5.51554 50.3559 5.13975 49.76C3.94669 46.4148 3.37074 42.8809 3.4398 39.33C3.4398 37.06 3.9798 26.04 12.9398 18.33C16.5707 15.2387 20.9383 13.1376 25.6197 12.23C26.3304 12.1449 26.9782 11.7811 27.4208 11.2185C27.8633 10.656 28.0644 9.94071 27.9798 9.22998V9.24998Z" fill="white"/>
<path d="M33.0199 9.25C37.9969 9.75818 42.7706 11.4908 46.9149 14.2932C51.0592 17.0957 54.4451 20.8807 56.7704 25.3103C59.0956 29.74 60.2878 34.6765 60.2406 39.6792C60.1934 44.6819 58.9083 49.595 56.4999 53.98C55.849 53.4138 55.4406 52.6189 55.3597 51.76C55.302 51.0578 55.4739 50.3559 55.8497 49.76C57.0421 46.4144 57.6216 42.8812 57.5599 39.33C57.5599 37.06 57.0099 26.04 48.0499 18.33C44.419 15.2388 40.0512 13.1376 35.3698 12.23C34.9771 12.1757 34.6004 12.0389 34.2643 11.8287C33.9282 11.6184 33.6404 11.3394 33.4198 11.01C33.0878 10.4869 32.9466 9.86523 33.0199 9.25V9.25Z" fill="white"/>
<path d="M28.4398 14.3899C24.3609 14.807 20.4488 16.2274 17.0523 18.5242C13.6559 20.8209 10.8808 23.9228 8.97467 27.5529C7.06852 31.183 6.09045 35.2285 6.12799 39.3284C6.16554 43.4284 7.21746 47.4553 9.18976 51.0499C9.72373 50.5865 10.057 49.9341 10.1197 49.2299C10.1599 48.6676 10.0199 48.1071 9.71979 47.6299C8.74528 44.8903 8.27422 41.9971 8.32965 39.0899C8.32965 37.2199 8.77969 28.1899 16.1197 21.8499C19.0927 19.3133 22.6726 17.5906 26.5098 16.8499C26.7996 16.8165 27.0799 16.7259 27.3343 16.5832C27.5887 16.4406 27.8122 16.2487 27.9918 16.0189C28.1714 15.789 28.3035 15.5257 28.3804 15.2444C28.4573 14.963 28.4775 14.6691 28.4398 14.3799V14.3899Z" fill="white"/>
<path d="M32.56 14.3899C36.6388 14.807 40.551 16.2274 43.9474 18.5242C47.3439 20.8209 50.1189 23.9228 52.0251 27.5529C53.9312 31.183 54.909 35.2285 54.8715 39.3284C54.834 43.4284 53.7823 47.4553 51.81 51.0499C51.276 50.5865 50.9424 49.9341 50.8798 49.2299C50.8396 48.6676 50.9798 48.1071 51.2799 47.6299C52.2536 44.8899 52.7277 41.9974 52.6799 39.0899C52.6799 37.2199 52.2298 28.1899 44.8798 21.8499C41.9078 19.3117 38.3277 17.5888 34.4899 16.8499C34.2001 16.8165 33.9199 16.7259 33.6655 16.5832C33.411 16.4406 33.1873 16.2487 33.0077 16.0189C32.8281 15.789 32.6962 15.5257 32.6193 15.2444C32.5424 14.963 32.5223 14.6691 32.56 14.3799V14.3899Z" fill="white"/>
<path d="M32.3298 0H28.7998V63.57H32.3298V0Z" fill="white"/>
<path d="M22.3999 21.46H18.8701V63.57H22.3999V21.46Z" fill="white"/>
<path d="M12.4597 42.4199H8.92969V63.5699H12.4597V42.4199Z" fill="white"/>
<path d="M42.2703 21.46H38.7402V63.57H42.2703V21.46Z" fill="white"/>
<path d="M52.2097 42.4199H48.6797V63.5699H52.2097V42.4199Z" fill="white"/>
<path d="M30.5 42.66C32.6981 42.66 34.48 40.878 34.48 38.68C34.48 36.4819 32.6981 34.7 30.5 34.7C28.3019 34.7 26.52 36.4819 26.52 38.68C26.52 40.878 28.3019 42.66 30.5 42.66Z" fill="white"/>
<path d="M40.6597 54.1399C42.8578 54.1399 44.6396 52.358 44.6396 50.1599C44.6396 47.9618 42.8578 46.1799 40.6597 46.1799C38.4616 46.1799 36.6797 47.9618 36.6797 50.1599C36.6797 52.358 38.4616 54.1399 40.6597 54.1399Z" fill="white"/>
<path d="M20.7798 54.1399C22.9779 54.1399 24.7598 52.358 24.7598 50.1599C24.7598 47.9618 22.9779 46.1799 20.7798 46.1799C18.5817 46.1799 16.7998 47.9618 16.7998 50.1599C16.7998 52.358 18.5817 54.1399 20.7798 54.1399Z" fill="white"/>
<path d="M10.6299 60.7701C12.828 60.7701 14.6101 58.9882 14.6101 56.7901C14.6101 54.592 12.828 52.8101 10.6299 52.8101C8.43179 52.8101 6.6499 54.592 6.6499 56.7901C6.6499 58.9882 8.43179 60.7701 10.6299 60.7701Z" fill="white"/>
<path d="M50.3799 60.7701C52.578 60.7701 54.3601 58.9882 54.3601 56.7901C54.3601 54.592 52.578 52.8101 50.3799 52.8101C48.1818 52.8101 46.3999 54.592 46.3999 56.7901C46.3999 58.9882 48.1818 60.7701 50.3799 60.7701Z" fill="white"/>
<path d="M10.8701 57.16L10.3799 56.42L20.49 49.83L30.49 38L40.95 49.83L50.6201 56.42L50.1299 57.15L40.3601 50.5L40.3301 50.46L30.51 39.36L21.0801 50.5L10.8701 57.16Z" fill="white"/>
<path d="M67.8387 29.6216L67.6344 27.9667H76.6849C77.7609 27.9667 78.5713 28.1506 79.1161 28.5183C79.6609 28.8861 80.0082 29.3287 80.158 29.8463C80.3214 30.3638 80.4032 30.9563 80.4032 31.6237V32.8291C80.4032 33.7007 80.1308 34.4907 79.586 35.1989C79.0548 35.9072 78.0878 36.2613 76.6849 36.2613H74.601C73.1165 36.2613 71.7613 36.2068 70.5355 36.0979V40H67.8387V29.6216ZM76.0924 34.3C76.6645 34.3 77.0731 34.1638 77.3182 33.8914C77.577 33.6054 77.7064 33.2309 77.7064 32.7678V31.4807C77.7064 30.4456 77.1752 29.928 76.1129 29.928H70.5355V34.3H76.0924ZM96.3109 40.2043C95.6844 40.2043 95.1124 40.109 94.5948 39.9183C94.0909 39.714 93.5325 39.3054 92.9196 38.6925L91.4486 37.2215C90.8357 36.595 90.1683 36.1455 89.4465 35.8731C88.7246 35.5871 87.8393 35.4441 86.7906 35.4441H86.1572V40H83.4605V29.6216L83.2562 27.9667H92.3067C93.3826 27.9667 94.193 28.1506 94.7378 28.5183C95.2826 28.8861 95.6299 29.3287 95.7798 29.8463C95.9432 30.3638 96.0249 30.9563 96.0249 31.6237V32.0119C96.0249 32.8291 95.7866 33.585 95.3099 34.2796C94.8332 34.9606 93.9819 35.342 92.7561 35.4237C92.8651 35.4782 93.0285 35.5735 93.2464 35.7097C93.5461 35.914 93.9002 36.1932 94.3088 36.5473C94.4995 36.7108 94.7038 36.881 94.9217 37.0581C95.1532 37.2351 95.3984 37.3986 95.6572 37.5484C96.5289 38.0796 97.421 38.3452 98.3335 38.3452L97.9249 40C97.5027 40.1362 96.9647 40.2043 96.3109 40.2043ZM86.1572 33.4828C87.1515 33.5509 88.173 33.585 89.2217 33.585C90.1615 33.585 90.9923 33.5509 91.7142 33.4828C92.7902 33.3739 93.3282 32.8631 93.3282 31.9506V31.4807C93.3282 30.4456 92.797 29.928 91.7346 29.928H86.1572V33.4828ZM103.709 40C102.32 40 101.346 39.7072 100.788 39.1215C100.243 38.5358 99.9705 37.6097 99.9705 36.343V31.6237C99.9705 30.3843 100.243 29.4717 100.788 28.8861C101.332 28.2868 102.306 27.9872 103.709 27.9872H109.675C111.05 27.9872 112.011 28.2868 112.555 28.8861C113.114 29.4717 113.393 30.3843 113.393 31.6237V36.343C113.393 37.5961 113.114 38.5222 112.555 39.1215C112.011 39.7072 111.05 40 109.675 40H103.709ZM109.103 38.0387C109.607 38.0387 109.995 37.9093 110.267 37.6505C110.553 37.3918 110.696 37.0376 110.696 36.5882V31.3785C110.696 30.9836 110.546 30.6499 110.247 30.3775C109.961 30.0914 109.579 29.9484 109.103 29.9484H104.302C103.811 29.9484 103.416 30.0778 103.117 30.3366C102.817 30.5954 102.667 30.9427 102.667 31.3785V36.5882C102.667 37.0376 102.81 37.3918 103.096 37.6505C103.396 37.9093 103.798 38.0387 104.302 38.0387H109.103ZM118.743 40C117.858 40 117.184 39.9659 116.721 39.8978C116.271 39.8161 116.046 39.714 116.046 39.5914L116.864 37.814C118.062 37.9638 120.555 38.0387 124.341 38.0387H124.729C125.315 38.0387 125.73 37.9366 125.975 37.7323C126.22 37.5143 126.343 37.1534 126.343 36.6495V36.2409C126.343 35.7506 126.234 35.4101 126.016 35.2194C125.812 35.0151 125.383 34.9129 124.729 34.9129H119.989C118.6 34.9129 117.592 34.661 116.966 34.157C116.353 33.6395 116.046 32.8018 116.046 31.6441V31.3172C116.046 30.3094 116.332 29.5058 116.904 28.9065C117.476 28.2936 118.437 27.9872 119.785 27.9872H125.342C126.241 27.9872 126.983 28.0348 127.569 28.1302C128.154 28.2119 128.447 28.314 128.447 28.4366L128.039 30.1527C126.731 30.0165 124.246 29.9484 120.582 29.9484L120.357 29.928C119.771 29.928 119.356 30.0438 119.111 30.2753C118.879 30.5069 118.757 30.8337 118.743 31.256V31.6033C118.743 32.0663 118.866 32.4068 119.111 32.6248C119.37 32.8427 119.792 32.9516 120.377 32.9516H124.913C125.853 32.9516 126.615 33.047 127.201 33.2377C127.8 33.4147 128.257 33.7416 128.57 34.2183C128.883 34.695 129.04 35.376 129.04 36.2613V36.5882C129.04 38.8627 127.868 40 125.526 40H118.743ZM132.101 29.6216L131.897 27.9667H140.948C142.024 27.9667 142.834 28.1506 143.379 28.5183C143.924 28.8861 144.271 29.3287 144.421 29.8463C144.584 30.3638 144.666 30.9563 144.666 31.6237V32.8291C144.666 33.7007 144.393 34.4907 143.849 35.1989C143.317 35.9072 142.35 36.2613 140.948 36.2613H138.864C137.379 36.2613 136.024 36.2068 134.798 36.0979V40H132.101V29.6216ZM140.355 34.3C140.927 34.3 141.336 34.1638 141.581 33.8914C141.84 33.6054 141.969 33.2309 141.969 32.7678V31.4807C141.969 30.4456 141.438 29.928 140.376 29.928H134.798V34.3H140.355ZM147.519 27.9872H160.226V29.9484H150.216V32.7678H157.856V34.7903H150.216V38.0387H160.308L161.125 39.7753C161.084 39.8434 160.866 39.8978 160.472 39.9387C160.077 39.9796 159.477 40 158.674 40H147.519V27.9872ZM176.215 40.2043C175.589 40.2043 175.017 40.109 174.499 39.9183C173.995 39.714 173.437 39.3054 172.824 38.6925L171.353 37.2215C170.74 36.595 170.073 36.1455 169.351 35.8731C168.629 35.5871 167.744 35.4441 166.695 35.4441H166.062V40H163.365V29.6216L163.161 27.9667H172.211C173.287 27.9667 174.097 28.1506 174.642 28.5183C175.187 28.8861 175.534 29.3287 175.684 29.8463C175.848 30.3638 175.929 30.9563 175.929 31.6237V32.0119C175.929 32.8291 175.691 33.585 175.214 34.2796C174.738 34.9606 173.886 35.342 172.661 35.4237C172.77 35.4782 172.933 35.5735 173.151 35.7097C173.451 35.914 173.805 36.1932 174.213 36.5473C174.404 36.7108 174.608 36.881 174.826 37.0581C175.058 37.2351 175.303 37.3986 175.562 37.5484C176.433 38.0796 177.325 38.3452 178.238 38.3452L177.829 40C177.407 40.1362 176.869 40.2043 176.215 40.2043ZM166.062 33.4828C167.056 33.5509 168.077 33.585 169.126 33.585C170.066 33.585 170.897 33.5509 171.619 33.4828C172.695 33.3739 173.233 32.8631 173.233 31.9506V31.4807C173.233 30.4456 172.701 29.928 171.639 29.928H166.062V33.4828ZM180.079 27.9872H182.776V40H180.079V27.9872ZM190.131 29.928H184.819V27.9667H198.18V29.928H192.848V40H190.151L190.131 29.928ZM204.745 35.0151L198.8 27.9872H202.069L205.092 31.8076L206.032 33.0742H206.236L207.176 31.8076L210.2 27.9872H213.469L212.672 29.213L207.442 35.0968V40H204.745V35.0151Z" fill="white"/>
<path d="M67.8387 47.6216L67.6344 45.9872H80.3827V47.9484H70.5355V50.9312H78.1763V52.9538H70.5355V58H67.8387V47.6216ZM85.7483 58.2043C84.5634 58.2043 83.7121 57.891 83.1946 57.2645C82.677 56.6244 82.4182 55.7186 82.4182 54.5473V45.9872H85.115V54.629C85.115 55.2283 85.258 55.6505 85.544 55.8957C85.83 56.1272 86.2318 56.243 86.7494 56.243H91.0805C92.1701 56.243 92.7149 55.705 92.7149 54.629V45.9872H95.4117V54.5473C95.4117 55.7323 95.1597 56.638 94.6558 57.2645C94.1518 57.891 93.3006 58.2043 92.102 58.2043H85.7483ZM98.8827 47.6216L98.6784 45.9872H101.62L108.567 53.2602L109.363 54.3635H109.588V45.9872H112.285V58H109.69L102.581 50.6043L101.784 49.6441H101.579V58H98.8827V47.6216ZM115.761 47.6216L115.557 45.9872H125.037C126.113 45.9872 126.95 46.1234 127.55 46.3958C128.149 46.6545 128.564 47.0495 128.796 47.5807C129.041 48.0983 129.163 48.7793 129.163 49.6237V54.343C129.163 55.2011 129.048 55.8957 128.816 56.4269C128.585 56.9444 128.169 57.3394 127.57 57.6118C126.971 57.8706 126.126 58 125.037 58H115.761V47.6216ZM124.873 56.0387C125.922 56.0387 126.453 55.5552 126.467 54.5882V49.3785C126.467 48.4251 125.936 47.9484 124.873 47.9484H118.458V56.0387H124.873Z" fill="white"/>
</svg>
