<svg width="251" height="282" viewBox="0 0 251 282" fill="none" xmlns="http://www.w3.org/2000/svg">
<path d="M111.38 28.6401C95.9794 30.2183 81.2088 35.5833 68.3854 44.2567C55.562 52.9301 45.0844 64.6422 37.8871 78.3487C30.6898 92.0551 26.9966 107.33 27.1367 122.81C27.2767 138.291 31.2458 153.496 38.69 167.07C40.7141 165.325 41.98 162.862 42.22 160.2C42.3507 158.092 41.823 155.995 40.71 154.2C37.0106 143.842 35.2249 132.897 35.44 121.9C35.59 114.9 37.14 80.7701 64.87 56.8301C76.1019 47.2584 89.6204 40.7575 104.11 37.9601C105.318 37.7855 106.476 37.3598 107.509 36.7105C108.543 36.0612 109.429 35.2026 110.11 34.1901C111.155 32.5395 111.603 30.5809 111.38 28.6401Z" fill="white"/>
<path d="M126.98 28.6401C142.382 30.215 157.154 35.5782 169.979 44.2511C182.804 52.9241 193.283 64.6371 200.48 78.3449C207.677 92.0527 211.369 107.329 211.226 122.811C211.082 138.292 207.109 153.498 199.66 167.07C197.637 165.313 196.375 162.839 196.14 160.17C195.996 158.061 196.525 155.96 197.65 154.17C201.352 143.826 203.141 132.895 202.93 121.91C202.78 114.91 201.23 80.7802 173.5 56.8401C162.27 47.2707 148.756 40.77 134.27 37.9701C133.062 37.7949 131.904 37.369 130.871 36.7197C129.838 36.0704 128.952 35.2122 128.27 34.2001C127.209 32.5522 126.753 30.5869 126.98 28.6401Z" fill="white"/>
<path d="M112.78 44.54C100.157 45.8327 88.0505 50.2296 77.5399 57.3385C67.0294 64.4475 58.4419 74.0474 52.5434 85.282C46.6449 96.5166 43.6188 109.036 43.7352 121.725C43.8515 134.413 47.1065 146.875 53.21 158C54.8638 156.567 55.8993 154.549 56.1 152.37C56.2161 150.631 55.7823 148.899 54.86 147.42C51.8265 138.942 50.3593 129.983 50.53 120.98C50.65 115.21 51.9201 87.27 74.6501 67.64C83.8582 59.7988 94.9362 54.4698 106.81 52.17C107.814 52.0375 108.779 51.6936 109.641 51.1609C110.503 50.6283 111.242 49.9191 111.81 49.08C112.64 47.7211 112.983 46.1197 112.78 44.54Z" fill="white"/>
<path d="M125.57 44.54C138.192 45.8336 150.299 50.2308 160.809 57.3397C171.319 64.4485 179.907 74.048 185.806 85.282C191.705 96.516 194.733 109.035 194.618 121.724C194.504 134.412 191.251 146.874 185.15 158C183.64 156.736 182.64 154.967 182.335 153.021C182.03 151.076 182.44 149.086 183.49 147.42C186.533 138.944 188.004 129.984 187.83 120.98C187.7 115.21 186.43 87.27 163.7 67.64C154.494 59.8011 143.42 54.4723 131.55 52.17C130.545 52.0375 129.58 51.6936 128.719 51.1609C127.857 50.6283 127.118 49.9191 126.55 49.08C125.716 47.7223 125.37 46.1208 125.57 44.54Z" fill="white"/>
<path d="M124.87 0H113.93V196.75H124.87V0Z" fill="white"/>
<path d="M94.1099 66.4102H83.1699V196.75H94.1099V66.4102Z" fill="white"/>
<path d="M63.3599 131.29H52.4199V196.75H63.3599V131.29Z" fill="white"/>
<path d="M155.63 66.4102H144.69V196.75H155.63V66.4102Z" fill="white"/>
<path d="M186.38 131.29H175.44V196.75H186.38V131.29Z" fill="white"/>
<path d="M119.18 132.03C125.973 132.03 131.48 126.523 131.48 119.73C131.48 112.937 125.973 107.43 119.18 107.43C112.387 107.43 106.88 112.937 106.88 119.73C106.88 126.523 112.387 132.03 119.18 132.03Z" fill="white"/>
<path d="M150.62 167.57C157.413 167.57 162.92 162.063 162.92 155.27C162.92 148.477 157.413 142.97 150.62 142.97C143.827 142.97 138.32 148.477 138.32 155.27C138.32 162.063 143.827 167.57 150.62 167.57Z" fill="white"/>
<path d="M89.11 167.57C95.9031 167.57 101.41 162.063 101.41 155.27C101.41 148.477 95.9031 142.97 89.11 142.97C82.3169 142.97 76.8101 148.477 76.8101 155.27C76.8101 162.063 82.3169 167.57 89.11 167.57Z" fill="white"/>
<path d="M57.6701 188.07C64.4632 188.07 69.9701 182.563 69.9701 175.77C69.9701 168.977 64.4632 163.47 57.6701 163.47C50.877 163.47 45.3701 168.977 45.3701 175.77C45.3701 182.563 50.877 188.07 57.6701 188.07Z" fill="white"/>
<path d="M180.7 188.07C187.493 188.07 193 182.563 193 175.77C193 168.977 187.493 163.47 180.7 163.47C173.907 163.47 168.4 168.977 168.4 175.77C168.4 182.563 173.907 188.07 180.7 188.07Z" fill="white"/>
<path d="M58.4099 176.92L56.9199 174.63L88.1899 154.23L119.16 117.64L151.53 154.23L181.47 174.64L179.93 176.9L149.71 156.3L149.6 156.17L119.21 121.82L90.0199 156.3L58.4099 176.92Z" fill="white"/>
<path d="M3.1221 217.047L2.7752 214.238H18.1429C19.9699 214.238 21.3459 214.55 22.271 215.174C23.196 215.799 23.7858 216.55 24.0402 217.429C24.3177 218.308 24.4565 219.314 24.4565 220.447V222.494C24.4565 223.974 23.9939 225.315 23.0688 226.518C22.1669 227.72 20.5249 228.322 18.1429 228.322H14.6045C12.0837 228.322 9.78258 228.229 7.70118 228.044V234.67H3.1221V217.047ZM17.1369 224.991C18.1082 224.991 18.802 224.76 19.2183 224.298C19.6577 223.812 19.8774 223.176 19.8774 222.39V220.204C19.8774 218.447 18.9754 217.568 17.1716 217.568H7.70118V224.991H17.1369ZM51.4678 235.017C50.4039 235.017 49.4326 234.855 48.5538 234.531C47.6981 234.184 46.7499 233.49 45.7092 232.45L43.2115 229.952C42.1708 228.888 41.0376 228.125 39.8119 227.663C38.5862 227.177 37.083 226.934 35.3022 226.934H34.2268V234.67H29.6478V217.047L29.3009 214.238H44.6685C46.4955 214.238 47.8716 214.55 48.7966 215.174C49.7217 215.799 50.3114 216.55 50.5658 217.429C50.8433 218.308 50.9821 219.314 50.9821 220.447V221.106C50.9821 222.494 50.5774 223.777 49.768 224.957C48.9585 226.113 47.5131 226.761 45.4317 226.899C45.6167 226.992 45.8942 227.154 46.2643 227.385C46.7731 227.732 47.3743 228.206 48.0681 228.807C48.3919 229.085 48.7388 229.374 49.1088 229.675C49.502 229.975 49.9183 230.253 50.3577 230.507C51.8378 231.409 53.3526 231.86 54.9021 231.86L54.2083 234.67C53.4913 234.901 52.5778 235.017 51.4678 235.017ZM34.2268 223.604C35.9151 223.719 37.6496 223.777 39.4303 223.777C41.0261 223.777 42.4368 223.719 43.6625 223.604C45.4895 223.419 46.403 222.552 46.403 221.002V220.204C46.403 218.447 45.5011 217.568 43.6972 217.568H34.2268V223.604ZM64.0299 234.67C61.671 234.67 60.0174 234.173 59.0692 233.178C58.1441 232.184 57.6816 230.611 57.6816 228.46V220.447C57.6816 218.342 58.1441 216.793 59.0692 215.799C59.9943 214.781 61.6478 214.272 64.0299 214.272H74.1594C76.4952 214.272 78.1256 214.781 79.0507 215.799C79.9988 216.793 80.4729 218.342 80.4729 220.447V228.46C80.4729 230.588 79.9988 232.161 79.0507 233.178C78.1256 234.173 76.4952 234.67 74.1594 234.67H64.0299ZM73.188 231.34C74.0437 231.34 74.7028 231.12 75.1654 230.681C75.651 230.241 75.8939 229.64 75.8939 228.877V220.031C75.8939 219.36 75.6395 218.793 75.1307 218.331C74.645 217.845 73.9975 217.602 73.188 217.602H65.0359C64.2033 217.602 63.5327 217.822 63.0239 218.262C62.5151 218.701 62.2607 219.291 62.2607 220.031V228.877C62.2607 229.64 62.5035 230.241 62.9892 230.681C63.498 231.12 64.1802 231.34 65.0359 231.34H73.188ZM89.5574 234.67C88.0542 234.67 86.9094 234.612 86.1231 234.496C85.3599 234.358 84.9783 234.184 84.9783 233.976L86.3659 230.958C88.4011 231.212 92.6332 231.34 99.0624 231.34H99.7216C100.716 231.34 101.421 231.166 101.838 230.819C102.254 230.449 102.462 229.836 102.462 228.981V228.287C102.462 227.454 102.277 226.876 101.907 226.552C101.56 226.206 100.832 226.032 99.7216 226.032H91.6735C89.3146 226.032 87.6032 225.604 86.5394 224.749C85.4987 223.87 84.9783 222.447 84.9783 220.482V219.927C84.9783 218.215 85.464 216.851 86.4353 215.833C87.4066 214.793 89.037 214.272 91.3266 214.272H100.762C102.289 214.272 103.549 214.353 104.543 214.515C105.538 214.654 106.035 214.827 106.035 215.035L105.341 217.949C103.121 217.718 98.9006 217.602 92.6795 217.602L92.2979 217.568C91.3034 217.568 90.5981 217.764 90.1818 218.157C89.7887 218.551 89.5805 219.106 89.5574 219.823V220.412C89.5574 221.199 89.7655 221.777 90.1818 222.147C90.6212 222.517 91.3381 222.702 92.3326 222.702H100.034C101.63 222.702 102.925 222.864 103.919 223.188C104.937 223.488 105.711 224.043 106.243 224.853C106.775 225.662 107.041 226.818 107.041 228.322V228.877C107.041 232.739 105.052 234.67 101.074 234.67H89.5574ZM112.24 217.047L111.893 214.238H127.261C129.088 214.238 130.464 214.55 131.389 215.174C132.314 215.799 132.903 216.55 133.158 217.429C133.435 218.308 133.574 219.314 133.574 220.447V222.494C133.574 223.974 133.112 225.315 132.187 226.518C131.285 227.72 129.643 228.322 127.261 228.322H123.722C121.201 228.322 118.9 228.229 116.819 228.044V234.67H112.24V217.047ZM126.255 224.991C127.226 224.991 127.92 224.76 128.336 224.298C128.775 223.812 128.995 223.176 128.995 222.39V220.204C128.995 218.447 128.093 217.568 126.289 217.568H116.819V224.991H126.255ZM138.419 214.272H159.996V217.602H142.998V222.39H155.972V225.824H142.998V231.34H160.134L161.522 234.288C161.453 234.404 161.083 234.496 160.412 234.566C159.741 234.635 158.724 234.67 157.359 234.67H138.419V214.272ZM187.145 235.017C186.081 235.017 185.11 234.855 184.231 234.531C183.375 234.184 182.427 233.49 181.386 232.45L178.889 229.952C177.848 228.888 176.715 228.125 175.489 227.663C174.263 227.177 172.76 226.934 170.979 226.934H169.904V234.67H165.325V217.047L164.978 214.238H180.346C182.173 214.238 183.549 214.55 184.474 215.174C185.399 215.799 185.989 216.55 186.243 217.429C186.521 218.308 186.659 219.314 186.659 220.447V221.106C186.659 222.494 186.255 223.777 185.445 224.957C184.636 226.113 183.19 226.761 181.109 226.899C181.294 226.992 181.571 227.154 181.941 227.385C182.45 227.732 183.052 228.206 183.745 228.807C184.069 229.085 184.416 229.374 184.786 229.675C185.179 229.975 185.595 230.253 186.035 230.507C187.515 231.409 189.03 231.86 190.579 231.86L189.885 234.67C189.169 234.901 188.255 235.017 187.145 235.017ZM169.904 223.604C171.592 223.719 173.327 223.777 175.108 223.777C176.703 223.777 178.114 223.719 179.34 223.604C181.167 223.419 182.08 222.552 182.08 221.002V220.204C182.08 218.447 181.178 217.568 179.374 217.568H169.904V223.604ZM193.706 214.272H198.285V234.67H193.706V214.272ZM210.773 217.568H201.754V214.238H224.441V217.568H215.387V234.67H210.808L210.773 217.568ZM235.588 226.206L225.493 214.272H231.044L236.178 220.759L237.773 222.91H238.12L239.716 220.759L244.85 214.272H250.401L249.048 216.354L240.167 226.344V234.67H235.588V226.206Z" fill="white"/>
<path d="M56.1221 255.047L55.7752 252.272H77.4218V255.602H60.7012V260.667H73.6752V264.101H60.7012V272.67H56.1221V255.047ZM86.5325 273.017C84.5205 273.017 83.0751 272.485 82.1962 271.421C81.3174 270.334 80.878 268.796 80.878 266.807V252.272H85.4571V266.946C85.4571 267.964 85.6999 268.681 86.1856 269.097C86.6713 269.49 87.3535 269.687 88.2323 269.687H95.5866C97.4367 269.687 98.3618 268.773 98.3618 266.946V252.272H102.941V266.807C102.941 268.819 102.513 270.357 101.657 271.421C100.802 272.485 99.3562 273.017 97.3211 273.017H86.5325ZM108.835 255.047L108.488 252.272H113.483L125.278 264.622L126.631 266.495H127.012V252.272H131.591V272.67H127.186L115.114 260.112L113.761 258.482H113.414V272.67H108.835V255.047ZM137.495 255.047L137.148 252.272H153.244C155.071 252.272 156.493 252.503 157.511 252.966C158.528 253.405 159.234 254.076 159.627 254.978C160.043 255.857 160.251 257.013 160.251 258.447V266.46C160.251 267.917 160.055 269.097 159.661 269.999C159.268 270.878 158.563 271.548 157.545 272.011C156.528 272.45 155.094 272.67 153.244 272.67H137.495V255.047ZM152.966 269.34C154.747 269.34 155.649 268.519 155.672 266.877V258.031C155.672 256.412 154.77 255.602 152.966 255.602H142.074V269.34H152.966Z" fill="white"/>
</svg>
